<svg xmlns="http://www.w3.org/2000/svg" width="32" height="32" fill="none"><path fill="#F6F4F3" d="m27.677 7.657-13 13a1.296 1.296 0 0 1-1.833 0l-3.679-3.679a1.296 1.296 0 1 1 1.833-1.833l2.756 2.756L25.831 5.824a1.294 1.294 0 0 1 1.833 0c.52.507.52 1.326.013 1.833Zm-7.176-4.095c-2.197-.897-4.693-1.209-7.293-.741-5.291.949-9.516 5.213-10.413 10.504a13.012 13.012 0 0 0 14.547 15.158c5.148-.663 9.464-4.498 10.816-9.503.52-1.911.572-3.757.273-5.486-.169-1.04-1.456-1.443-2.21-.702a1.308 1.308 0 0 0-.351 1.157c.286 1.729.156 3.575-.676 5.538-1.508 3.523-4.784 6.11-8.593 6.461a10.408 10.408 0 0 1-11.31-11.674c.559-4.602 4.264-8.346 8.853-8.983a10.365 10.365 0 0 1 6.201 1.053 1.305 1.305 0 1 0 1.209-2.314c-.351-.156-.702-.325-1.053-.468Z"/></svg>