<svg width="32" height="32" viewBox="0 0 32 32" fill="none" xmlns="http://www.w3.org/2000/svg">
<path d="M15.6 2.60001C13.8928 2.60001 12.2023 2.93626 10.6251 3.58957C9.04786 4.24288 7.61475 5.20046 6.40759 6.40762C3.96961 8.84559 2.59998 12.1522 2.59998 15.6C2.59998 19.0478 3.96961 22.3544 6.40759 24.7924C7.61475 25.9996 9.04786 26.9571 10.6251 27.6104C12.2023 28.2638 13.8928 28.6 15.6 28.6C19.0478 28.6 22.3544 27.2304 24.7924 24.7924C27.2303 22.3544 28.6 19.0478 28.6 15.6H26C26 18.3583 24.9043 21.0035 22.9539 22.9539C21.0035 24.9043 18.3582 26 15.6 26C12.8417 26 10.1964 24.9043 8.24606 22.9539C6.29569 21.0035 5.19998 18.3583 5.19998 15.6C5.19998 12.8418 6.29569 10.1965 8.24606 8.2461C10.1964 6.29572 12.8417 5.20001 15.6 5.20001V2.60001ZM24.414 3.90001C24.18 3.90198 23.9561 3.99528 23.79 4.16001L22.204 5.73301L25.454 8.98301L27.04 7.41001C27.378 7.07201 27.378 6.50001 27.04 6.17501L25.025 4.16001C24.856 3.99101 24.635 3.90001 24.414 3.90001ZM21.281 6.65601L11.7 16.25V19.5H14.95L24.531 9.90601L21.281 6.65601Z" fill="#F6F4F3"/>
</svg>
