<svg xmlns="http://www.w3.org/2000/svg" width="32" height="32" fill="none"><path fill="#F6F4F3" d="M25.35 5.85v3.9H5.85v-3.9h19.5Zm0-1.95H5.85A1.95 1.95 0 0 0 3.9 5.85v3.9a1.95 1.95 0 0 0 1.95 1.95h19.5a1.95 1.95 0 0 0 1.95-1.95v-3.9a1.95 1.95 0 0 0-1.95-1.95ZM9.75 15.6v9.75h-3.9V15.6h3.9Zm0-1.95h-3.9A1.95 1.95 0 0 0 3.9 15.6v9.75a1.95 1.95 0 0 0 1.95 1.95h3.9a1.95 1.95 0 0 0 1.95-1.95V15.6a1.95 1.95 0 0 0-1.95-1.95Zm15.6 1.95v9.75H15.6V15.6h9.75Zm0-1.95H15.6a1.95 1.95 0 0 0-1.95 1.95v9.75a1.95 1.95 0 0 0 1.95 1.95h9.75a1.95 1.95 0 0 0 1.95-1.95V15.6a1.95 1.95 0 0 0-1.95-1.95Z"/></svg>