<svg xmlns="http://www.w3.org/2000/svg" width="32" height="32" fill="none"><path fill="#F6F4F3" d="M13 3.9c-.368 0-.677-.125-.926-.374A1.255 1.255 0 0 1 11.7 2.6c0-.368.125-.677.374-.927.25-.249.558-.373.926-.373h5.2c.368 0 .677.124.927.373.249.25.373.559.373.927s-.124.677-.373.926c-.25.25-.559.374-.927.374H13Zm2.6 14.3c.368 0 .677-.125.927-.374.249-.25.373-.558.373-.926v-5.2c0-.368-.124-.677-.373-.927a1.261 1.261 0 0 0-.927-.373c-.368 0-.677.124-.926.373-.25.25-.374.559-.374.927v5.2c0 .368.125.677.374.926.25.25.558.374.926.374Zm0 10.4a11.25 11.25 0 0 1-4.534-.926 11.961 11.961 0 0 1-3.721-2.519 11.963 11.963 0 0 1-2.52-3.72A11.251 11.251 0 0 1 3.9 16.9c0-1.603.309-3.115.926-4.534a11.963 11.963 0 0 1 2.519-3.721 11.944 11.944 0 0 1 3.72-2.518A11.237 11.237 0 0 1 15.6 5.2c1.343 0 2.633.217 3.868.65a12.639 12.639 0 0 1 3.477 1.885l.942-.943c.239-.238.531-.357.878-.357s.65.13.91.39c.238.238.357.542.357.91s-.119.672-.357.91l-.91.91a12.637 12.637 0 0 1 1.885 3.478c.433 1.235.65 2.524.65 3.867a11.25 11.25 0 0 1-.926 4.534 11.962 11.962 0 0 1-2.519 3.721 11.96 11.96 0 0 1-3.72 2.52 11.25 11.25 0 0 1-4.535.925Zm0-2.6c2.513 0 4.658-.888 6.435-2.665 1.777-1.777 2.665-3.922 2.665-6.435 0-2.513-.888-4.658-2.665-6.435C20.258 8.688 18.113 7.8 15.6 7.8c-2.513 0-4.658.888-6.435 2.665C7.388 12.242 6.5 14.387 6.5 16.9c0 2.513.888 4.658 2.665 6.435C10.942 25.112 13.087 26 15.6 26Z"/></svg>